<?xml version="1.0" encoding="UTF-8" standalone="no"?>
<!-- Created with Inkscape (http://www.inkscape.org/) -->

<svg
   version="1.0"
   width="526.36401"
   height="477.03693"
   id="svg2"
   sodipodi:docname="Penrose-dreieck.svg"
   inkscape:export-filename="penrose-0.png"
   inkscape:export-xdpi="16.1"
   inkscape:export-ydpi="16.1"
   inkscape:version="1.4.2 (ebf0e940, 2025-05-08)"
   xmlns:inkscape="http://www.inkscape.org/namespaces/inkscape"
   xmlns:sodipodi="http://sodipodi.sourceforge.net/DTD/sodipodi-0.dtd"
   xmlns="http://www.w3.org/2000/svg"
   xmlns:svg="http://www.w3.org/2000/svg">
  <sodipodi:namedview
     id="namedview1"
     pagecolor="#ffffff"
     bordercolor="#000000"
     borderopacity="0.25"
     inkscape:showpageshadow="2"
     inkscape:pageopacity="0.0"
     inkscape:pagecheckerboard="0"
     inkscape:deskcolor="#d1d1d1"
     inkscape:zoom="1.5806552"
     inkscape:cx="280.89618"
     inkscape:cy="248.63108"
     inkscape:window-width="1792"
     inkscape:window-height="1241"
     inkscape:window-x="399"
     inkscape:window-y="25"
     inkscape:window-maximized="0"
     inkscape:current-layer="svg2" />
  <defs
     id="defs4" />
  <g
     transform="translate(-91.423882,-253.5866)"
     id="layer1">
    <path
       d="M 312.32408,254.29303 L 497.87767,584.55178 L 291.61277,584.66663 L 252.04899,655.38029 L 617.26698,655.43727 L 394.46457,254.0866 L 312.32408,254.29303 z "
       style="fill:#ffffff;fill-opacity:1;fill-rule:evenodd;stroke:#000000;stroke-width:1px;stroke-linecap:butt;stroke-linejoin:round;stroke-opacity:1"
       id="path3214" />
    <path
       d="M 312.31392,254.26591 L 91.923882,655.37223 L 132.32998,728.10322 L 315.16759,396.77318 L 417.193,584.66155 L 498.0052,584.66155 L 312.31392,254.26591 z "
       style="fill:#7d7e7c;fill-opacity:1;fill-rule:evenodd;stroke:#000000;stroke-width:1px;stroke-linecap:butt;stroke-linejoin:round;stroke-opacity:1"
       id="path4185" />
    <path
       d="M 315.20979,396.83568 L 355.50104,471.05493 L 251.87272,655.43409 L 617.28788,655.62366 L 578.81741,730.12352 L 132.3464,728.07665 L 315.20979,396.83568 z "
       style="fill:#000000;fill-opacity:1;fill-rule:evenodd;stroke:#000000;stroke-width:1px;stroke-linecap:butt;stroke-linejoin:round;stroke-opacity:1"
       id="path5156" />
  </g>
  <path
     style="fill:#aa0000;stroke-width:0.632649"
     d="m 223.57719,143.18257 c -29.68617,52.36162 -58.28793,105.34449 -87.51718,157.96716 -31.81833,57.45353 -63.312708,115.09534 -95.525987,172.3226 -1.291874,1.26051 1.934036,1.2589 2.587435,1.31966 29.71744,0.63912 59.455962,-0.01 89.181272,0.31854 90.63738,0.55804 181.27792,0.58815 271.91415,1.27616 27.77397,0.81661 55.6645,0.51156 83.40356,0.40581 1.92659,-3.62209 3.8938,-7.65737 5.47142,-11.27154 1.2509,-0.0993 -0.0477,-1.49961 1.26654,-1.60015 -0.54384,-1.10741 1.10295,-1.07746 0.59682,-2.1945 1.31231,-0.0264 -0.0574,-1.51755 1.27023,-1.54085 -0.53005,-1.10143 0.70534,-0.82858 0.66107,-1.75585 -0.27962,-0.66168 1.14286,-0.8489 0.59929,-1.76449 1.30509,-0.0403 0.0547,-1.494 1.20599,-1.89301 1.85151,-2.70022 3.31351,-6.03589 4.52245,-8.86327 1.2509,-0.0993 -0.0477,-1.49961 1.26653,-1.60015 -0.54383,-1.10741 1.10296,-1.07746 0.59682,-2.1945 1.31231,-0.0264 -0.0574,-1.51755 1.27024,-1.54085 -0.53005,-1.10143 0.70534,-0.82859 0.66107,-1.75585 -0.27962,-0.66168 1.14286,-0.8489 0.59929,-1.76449 1.33545,-0.0408 0.005,-1.53657 1.20968,-1.93008 1.87289,-2.59511 3.50771,-6.24323 4.52617,-8.83485 1.22358,-0.10697 -0.0789,-1.50206 1.22823,-1.53096 -0.53006,-1.10143 0.70534,-0.82858 0.66106,-1.75584 -0.27961,-0.66168 1.14287,-0.8489 0.59929,-1.7645 1.31231,-0.0264 -0.0574,-1.51755 1.27024,-1.54085 -0.51297,-1.09847 0.6509,-0.81804 0.68826,-1.70766 -0.19229,-1.37929 1.92521,-2.54322 2.23156,-4.05537 1.3412,-2.1573 2.58765,-5.2755 3.43633,-7.2557 1.19764,-0.15759 -0.021,-1.48286 1.26653,-1.59274 -0.57348,-1.11807 1.1469,-1.04945 0.56839,-2.1945 1.6852,-0.17302 0.54963,-1.87459 -0.86123,-1.15409 -87.04263,-0.91936 -174.09508,-0.5391 -261.14194,-0.74748 -33.90769,-0.0297 -67.81538,-0.0594 -101.72308,-0.0891 13.37857,-23.96292 27.18607,-47.98801 40.09784,-72.0392 0.95165,-0.35113 -0.24508,-1.42366 1.01076,-1.61498 0.64216,-1.16615 0.97977,-2.5787 1.98321,-3.31276 -0.72982,-1.04458 1.22368,-0.61043 0.645,-1.72125 0.62013,-1.11774 1.88952,-2.27523 1.78921,-3.46351 1.17963,-0.20634 0.13412,-1.49626 1.47165,-1.62487 -0.31486,-1.45275 1.91885,-2.71611 1.7435,-4.06897 1.26161,-0.006 0.40863,-1.89142 1.72372,-2.42062 1.02551,-0.79203 0.16785,-2.10948 1.42964,-2.34402 -0.65452,-1.1968 1.17577,-0.74652 0.69937,-1.89424 0.68069,-1.09637 1.80389,-2.34796 1.84111,-3.4635 1.26161,-0.006 0.40863,-1.89143 1.72372,-2.42063 1.02551,-0.79202 0.16785,-2.10947 1.42964,-2.34401 -0.65452,-1.19681 1.17577,-0.74652 0.69937,-1.89424 0.62013,-1.11775 1.88952,-2.27523 1.78921,-3.46351 1.2894,-0.0784 -0.0132,-1.46212 1.27642,-1.62487 0.64216,-1.16615 0.97977,-2.5787 1.98321,-3.31276 -0.72982,-1.04458 1.22368,-0.61042 0.645,-1.72125 0.62013,-1.11774 1.88952,-2.27522 1.78921,-3.4635 1.28941,-0.0784 -0.0132,-1.46212 1.27642,-1.62487 0.64216,-1.16615 0.97977,-2.57871 1.98321,-3.31276 -0.72981,-1.04458 1.22369,-0.61043 0.645,-1.72125 0.62013,-1.11775 1.88952,-2.27523 1.78922,-3.46351 1.2894,-0.0784 -0.0132,-1.46212 1.27642,-1.62487 0.64215,-1.16615 0.97976,-2.5787 1.9832,-3.31276 -0.72981,-1.04458 1.22369,-0.61042 0.645,-1.72125 0.62013,-1.11774 1.88952,-2.27522 1.78922,-3.4635 1.34037,-0.0411 -0.0759,-1.45496 1.18498,-1.64217 1.22701,-1.01393 1.31294,-3.04546 2.07711,-4.05415 1.20858,-0.0465 0.3667,-1.89527 1.67677,-2.41815 1.02551,-0.79202 0.16785,-2.10948 1.42964,-2.34401 -0.62235,-1.31574 1.4839,-1.62855 1.64588,-3.07058 0.64272,-1.03968 0.26513,-2.43891 1.66193,-2.56395 -0.38103,-1.51444 2.00319,-2.69831 1.71137,-4.15176 1.2894,-0.0784 -0.0132,-1.46212 1.27642,-1.62487 0.64216,-1.16615 0.97976,-2.57871 1.9832,-3.31276 -0.72981,-1.04458 1.22369,-0.61043 0.64501,-1.72125 0.62013,-1.11775 1.88952,-2.27523 1.78921,-3.46351 1.17963,-0.20634 0.13412,-1.49626 1.47165,-1.62487 -0.31486,-1.45276 1.91885,-2.71611 1.74349,-4.06897 1.26162,-0.006 0.40864,-1.89142 1.72372,-2.42062 1.02552,-0.79203 0.16786,-2.10948 1.42965,-2.34402 -0.74985,-1.17605 1.21483,-0.7185 0.63388,-1.75338 1.14017,-1.45539 1.90612,-3.36448 0.29726,-4.96187 -12.86451,-24.01785 -25.80413,-48.01381 -39.22618,-71.72211 z"
     id="path1" />
  <path
     style="fill:#e9afaf;stroke-width:0.632649;fill-opacity:1"
     d="M 220.97987,3.2398552 C 176.59334,82.445224 133.08231,162.14776 89.23327,241.65532 60.027755,294.99146 30.491878,348.15462 1.7113651,401.71856 c 11.7513389,22.68709 24.3825739,45.02067 37.1423809,67.19211 0.723907,0.68753 1.794551,4.53926 2.787412,2.0879 41.328153,-73.50297 81.733992,-147.52688 122.584982,-221.2983 19.77845,-35.55886 39.00599,-71.43373 59.51663,-106.57454 19.54294,33.74032 37.68557,68.28624 56.42489,102.48136 15.45243,28.35625 30.69682,56.91189 46.27925,85.14356 25.5837,-0.18649 51.18772,0.40527 76.75936,-0.34103 1.80918,0.2662 2.24395,-1.43851 0.80194,-2.55778 C 343.23461,219.57517 282.37481,111.34578 221.35797,3.2064928 l -0.32621,-0.02842 z"
     id="path2" />
  <path
     style="fill:#aa0000;fill-opacity:1;stroke-width:0.632649"
     d="M 222.05611,1.6804741 C 254.96973,59.29039 287.16743,117.31988 319.73327,175.13186 c 28.98647,51.87467 58.35506,103.66458 87.002,155.64969 -10.95151,1.3373 -22.18687,0.49862 -33.24127,0.85136 -57.66384,0.23444 -115.40225,0.0657 -173.01962,0.41023 -12.81438,22.87945 -25.63793,45.75379 -38.43591,68.64242 10.47134,0.6952 21.68331,0.099 32.43933,0.29779 109.92031,0 219.84061,0 329.76091,0 -4.37899,-9.36772 -10.29629,-18.74553 -15.26011,-28.1163 C 440.3176,249.17655 371.65322,125.48793 302.987,1.8003314 276.12233,1.4539922 249.13659,1.5484825 222.22539,1.3715634 Z"
     id="path3" />
  <path
     style="fill:#ffffff;fill-opacity:1;stroke-width:0.632649"
     d="M 221.01447,3.9812407 C 200.98726,38.521969 182.08285,73.73359 162.65608,108.6266 108.97334,206.23995 54.957303,303.67254 1.9053611,401.63082 14.146327,425.06997 26.94147,448.36028 40.603219,471.04305 c 1.652103,-0.43023 2.24963,-3.74561 3.511878,-5.0839 50.532555,-89.51611 99.606263,-179.84913 149.544563,-269.69828 9.96583,-17.66416 19.46824,-35.70767 29.9892,-52.99304 11.20533,17.97152 20.78779,36.95143 31.14557,55.43657 24.02863,43.84407 47.57297,88.04184 71.7711,131.73858 25.89739,-0.12839 51.8147,0.30572 77.69969,-0.37934 -0.966,-3.90105 -3.9513,-7.67534 -5.68396,-11.47665 C 341.62597,216.99924 284.54787,115.47413 227.23469,14.086327 225.07673,10.912668 223.56933,6.6155664 221.01447,3.9812407 Z"
     id="path4" />
  <path
     style="fill:#ffffff;fill-opacity:1;stroke-width:0.632649"
     d="m 223.46845,144.24398 c -12.37525,20.53044 -23.53119,41.85814 -35.31163,62.76428 -47.90333,86.72321 -95.727342,173.49481 -143.764317,260.13923 -0.866514,2.33887 -3.164946,4.78063 -3.250544,7.15766 94.577121,1.06441 189.169201,0.8821 283.751371,1.61163 54.23048,0.30685 108.54374,1.05796 162.7234,0.87325 12.12848,-24.77891 25.05064,-49.17239 37.72911,-73.66408 1.11309,-1.68911 -3.191,-0.61765 -3.95652,-1.05771 -68.48647,-1.159 -136.99066,-0.68302 -205.48491,-0.85292 -51.23115,-0.15282 -102.4725,0.27928 -153.69665,-0.58166 0.44741,-2.50864 3.16392,-6.0782 4.46084,-8.93053 12.72971,-22.84702 25.45055,-45.71404 38.08604,-68.60358 5.81373,-10.34543 11.62384,-20.68012 17.4028,-31.03934 5.3762,-9.48578 10.62116,-19.06247 16.1066,-28.47168 4.92787,-9.19583 10.22281,-18.21264 15.33309,-27.28175 3.01659,-5.11086 5.69252,-10.58809 8.69769,-15.63088 2.88741,-3.0176 -0.69447,-7.24014 -1.87237,-10.25493 -11.7256,-21.90041 -23.2482,-43.95184 -35.97413,-65.29103 -0.28263,-0.27101 -0.49531,-0.94409 -0.97987,-0.88596 z"
     id="path5" />
  <path
     style="fill:#e9afaf;fill-opacity:1;stroke-width:0.632649"
     d="m 223.56854,145.01997 c -12.60499,20.11116 -23.53087,41.28999 -35.20701,61.96933 -48.42685,87.90575 -97.207685,175.61826 -145.498321,263.5978 -0.469152,1.13144 -2.929594,4.20231 0.07775,3.56107 131.643711,1.09372 263.292851,1.47289 394.937141,2.53172 16.46956,0.0311 33.02172,0.29877 49.4396,0.10025 12.10526,-24.60499 25.37348,-48.63449 37.17679,-73.38235 0.6374,-1.78415 -2.75431,-0.63415 -3.59943,-1.0923 -69.23531,-1.22568 -138.48975,-0.82499 -207.73378,-1.02496 -48.13588,-0.16468 -96.28194,0.15227 -144.41079,-0.60856 -2.03994,-0.40684 -4.76834,0.28178 -6.47601,-0.90079 32.70023,-60.04743 66.47119,-119.53755 99.83252,-179.22255 2.61477,-4.19785 -1.65125,-8.39952 -3.01878,-12.23436 -11.42166,-21.14946 -22.39416,-42.60224 -35.03654,-63.05088 -0.12084,-0.1335 -0.26944,-0.33318 -0.48314,-0.24342 z"
     id="path6" />
</svg>
